<mxfile host="app.diagrams.net" modified="2021-12-23T18:21:06.607Z" agent="5.0 (Windows NT 10.0; Win64; x64) AppleWebKit/537.36 (KHTML, like Gecko) Chrome/96.0.4664.110 Safari/537.36" etag="15G0PPUU-eOtHd5XA9Hy" version="16.0.3" type="github">
  <diagram id="Qu7LqszREAFXGTnwWv3M" name="Page-1">
    <mxGraphModel dx="1549" dy="875" grid="1" gridSize="10" guides="1" tooltips="1" connect="1" arrows="1" fold="1" page="1" pageScale="1" pageWidth="827" pageHeight="1169" math="0" shadow="0">
      <root>
        <mxCell id="0" />
        <mxCell id="1" parent="0" />
        <mxCell id="xQXg4SYV8JEtoPOsj5-T-1" value="" style="shape=dataStorage;whiteSpace=wrap;html=1;fixedSize=1;direction=west;" vertex="1" parent="1">
          <mxGeometry x="110" y="160" width="510" height="70" as="geometry" />
        </mxCell>
        <mxCell id="xQXg4SYV8JEtoPOsj5-T-2" value="HTTP" style="shape=note;whiteSpace=wrap;html=1;backgroundOutline=1;darkOpacity=0.05;size=21;" vertex="1" parent="1">
          <mxGeometry x="170" y="160" width="50" height="70" as="geometry" />
        </mxCell>
        <mxCell id="xQXg4SYV8JEtoPOsj5-T-3" value="TCP" style="shape=note;whiteSpace=wrap;html=1;backgroundOutline=1;darkOpacity=0.05;size=21;" vertex="1" parent="1">
          <mxGeometry x="270" y="160" width="50" height="70" as="geometry" />
        </mxCell>
        <mxCell id="xQXg4SYV8JEtoPOsj5-T-4" value="SMB" style="shape=note;whiteSpace=wrap;html=1;backgroundOutline=1;darkOpacity=0.05;size=21;" vertex="1" parent="1">
          <mxGeometry x="370" y="160" width="50" height="70" as="geometry" />
        </mxCell>
        <mxCell id="xQXg4SYV8JEtoPOsj5-T-5" value="REDIS" style="shape=note;whiteSpace=wrap;html=1;backgroundOutline=1;darkOpacity=0.05;size=21;" vertex="1" parent="1">
          <mxGeometry x="470" y="160" width="50" height="70" as="geometry" />
        </mxCell>
        <mxCell id="xQXg4SYV8JEtoPOsj5-T-7" value="" style="endArrow=none;dashed=1;html=1;dashPattern=1 3;strokeWidth=2;rounded=0;" edge="1" parent="1">
          <mxGeometry width="50" height="50" relative="1" as="geometry">
            <mxPoint x="550" y="200" as="sourcePoint" />
            <mxPoint x="590" y="200" as="targetPoint" />
          </mxGeometry>
        </mxCell>
        <mxCell id="xQXg4SYV8JEtoPOsj5-T-8" value="max(log_time)" style="text;html=1;strokeColor=none;fillColor=none;align=center;verticalAlign=middle;whiteSpace=wrap;rounded=0;" vertex="1" parent="1">
          <mxGeometry x="70" y="230" width="60" height="30" as="geometry" />
        </mxCell>
        <mxCell id="xQXg4SYV8JEtoPOsj5-T-10" value="12:10:00" style="text;html=1;strokeColor=none;fillColor=none;align=center;verticalAlign=middle;whiteSpace=wrap;rounded=0;" vertex="1" parent="1">
          <mxGeometry x="165" y="230" width="60" height="30" as="geometry" />
        </mxCell>
        <mxCell id="xQXg4SYV8JEtoPOsj5-T-11" value="12:20:00" style="text;html=1;strokeColor=none;fillColor=none;align=center;verticalAlign=middle;whiteSpace=wrap;rounded=0;" vertex="1" parent="1">
          <mxGeometry x="265" y="230" width="60" height="30" as="geometry" />
        </mxCell>
        <mxCell id="xQXg4SYV8JEtoPOsj5-T-12" value="12:25:00" style="text;html=1;strokeColor=none;fillColor=none;align=center;verticalAlign=middle;whiteSpace=wrap;rounded=0;" vertex="1" parent="1">
          <mxGeometry x="365" y="230" width="60" height="30" as="geometry" />
        </mxCell>
        <mxCell id="xQXg4SYV8JEtoPOsj5-T-13" value="11:55:00" style="text;html=1;strokeColor=none;fillColor=none;align=center;verticalAlign=middle;whiteSpace=wrap;rounded=0;" vertex="1" parent="1">
          <mxGeometry x="465" y="230" width="60" height="30" as="geometry" />
        </mxCell>
        <mxCell id="xQXg4SYV8JEtoPOsj5-T-35" value="" style="shape=flexArrow;endArrow=classic;html=1;rounded=0;endWidth=4;endSize=5.53;fillColor=#fff2cc;strokeColor=#d6b656;" edge="1" parent="1">
          <mxGeometry width="50" height="50" relative="1" as="geometry">
            <mxPoint x="136.25" y="480" as="sourcePoint" />
            <mxPoint x="320" y="480" as="targetPoint" />
          </mxGeometry>
        </mxCell>
        <mxCell id="xQXg4SYV8JEtoPOsj5-T-36" value="以右边界时间顺序排列" style="text;html=1;strokeColor=none;fillColor=none;align=center;verticalAlign=middle;whiteSpace=wrap;rounded=0;" vertex="1" parent="1">
          <mxGeometry x="136" y="490" width="140" height="30" as="geometry" />
        </mxCell>
        <mxCell id="xQXg4SYV8JEtoPOsj5-T-38" value="告警优先级队列" style="swimlane;childLayout=stackLayout;resizeParent=1;resizeParentMax=0;startSize=20;horizontal=0;horizontalStack=1;" vertex="1" parent="1">
          <mxGeometry x="136" y="360" width="290" height="100" as="geometry" />
        </mxCell>
        <mxCell id="xQXg4SYV8JEtoPOsj5-T-39" value="E" style="swimlane;startSize=40;" vertex="1" parent="xQXg4SYV8JEtoPOsj5-T-38">
          <mxGeometry x="20" width="90" height="100" as="geometry" />
        </mxCell>
        <mxCell id="xQXg4SYV8JEtoPOsj5-T-46" value="TCP" style="text;html=1;align=center;verticalAlign=middle;resizable=0;points=[];autosize=1;strokeColor=none;fillColor=none;fontSize=13;spacing=2;" vertex="1" parent="xQXg4SYV8JEtoPOsj5-T-39">
          <mxGeometry x="20" y="45" width="50" height="30" as="geometry" />
        </mxCell>
        <mxCell id="xQXg4SYV8JEtoPOsj5-T-40" value="D" style="swimlane;startSize=40;" vertex="1" parent="xQXg4SYV8JEtoPOsj5-T-38">
          <mxGeometry x="110" width="90" height="100" as="geometry" />
        </mxCell>
        <mxCell id="xQXg4SYV8JEtoPOsj5-T-47" value="TCP&lt;br&gt;SMB" style="text;html=1;align=center;verticalAlign=middle;resizable=0;points=[];autosize=1;strokeColor=none;fillColor=none;fontSize=13;" vertex="1" parent="xQXg4SYV8JEtoPOsj5-T-40">
          <mxGeometry x="20" y="45" width="40" height="40" as="geometry" />
        </mxCell>
        <mxCell id="xQXg4SYV8JEtoPOsj5-T-41" value="C" style="swimlane;startSize=40;" vertex="1" parent="xQXg4SYV8JEtoPOsj5-T-38">
          <mxGeometry x="200" width="90" height="100" as="geometry" />
        </mxCell>
        <mxCell id="xQXg4SYV8JEtoPOsj5-T-49" value="HTTP" style="text;html=1;align=center;verticalAlign=middle;resizable=0;points=[];autosize=1;strokeColor=none;fillColor=none;fontSize=13;" vertex="1" parent="xQXg4SYV8JEtoPOsj5-T-41">
          <mxGeometry x="15" y="50" width="50" height="20" as="geometry" />
        </mxCell>
        <mxCell id="xQXg4SYV8JEtoPOsj5-T-44" value="B" style="swimlane;startSize=40;" vertex="1" parent="1">
          <mxGeometry x="426" y="360" width="90" height="100" as="geometry" />
        </mxCell>
        <mxCell id="xQXg4SYV8JEtoPOsj5-T-50" value="HTTP&lt;br&gt;REDIS" style="text;html=1;align=center;verticalAlign=middle;resizable=0;points=[];autosize=1;strokeColor=none;fillColor=none;fontSize=13;" vertex="1" parent="xQXg4SYV8JEtoPOsj5-T-44">
          <mxGeometry x="15" y="45" width="60" height="40" as="geometry" />
        </mxCell>
        <mxCell id="xQXg4SYV8JEtoPOsj5-T-45" value="A" style="swimlane;startSize=40;" vertex="1" parent="1">
          <mxGeometry x="516" y="360" width="90" height="100" as="geometry" />
        </mxCell>
        <mxCell id="xQXg4SYV8JEtoPOsj5-T-51" value="REDIS" style="text;html=1;align=center;verticalAlign=middle;resizable=0;points=[];autosize=1;strokeColor=none;fillColor=none;fontSize=13;" vertex="1" parent="xQXg4SYV8JEtoPOsj5-T-45">
          <mxGeometry x="15" y="50" width="60" height="20" as="geometry" />
        </mxCell>
        <mxCell id="xQXg4SYV8JEtoPOsj5-T-52" value="右边界时间" style="text;html=1;strokeColor=none;fillColor=none;align=center;verticalAlign=middle;whiteSpace=wrap;rounded=0;" vertex="1" parent="1">
          <mxGeometry x="60" y="330" width="70" height="30" as="geometry" />
        </mxCell>
        <mxCell id="xQXg4SYV8JEtoPOsj5-T-54" value="12:25:00" style="text;html=1;strokeColor=none;fillColor=none;align=center;verticalAlign=middle;whiteSpace=wrap;rounded=0;" vertex="1" parent="1">
          <mxGeometry x="120" y="330" width="70" height="30" as="geometry" />
        </mxCell>
        <mxCell id="xQXg4SYV8JEtoPOsj5-T-55" value="12:20:00" style="text;html=1;strokeColor=none;fillColor=none;align=center;verticalAlign=middle;whiteSpace=wrap;rounded=0;" vertex="1" parent="1">
          <mxGeometry x="218" y="330" width="70" height="30" as="geometry" />
        </mxCell>
        <mxCell id="xQXg4SYV8JEtoPOsj5-T-56" value="12:10:00" style="text;html=1;strokeColor=none;fillColor=none;align=center;verticalAlign=middle;whiteSpace=wrap;rounded=0;" vertex="1" parent="1">
          <mxGeometry x="303" y="330" width="70" height="30" as="geometry" />
        </mxCell>
        <mxCell id="xQXg4SYV8JEtoPOsj5-T-59" value="12:05:00" style="text;html=1;strokeColor=none;fillColor=none;align=center;verticalAlign=middle;whiteSpace=wrap;rounded=0;" vertex="1" parent="1">
          <mxGeometry x="393" y="330" width="70" height="30" as="geometry" />
        </mxCell>
        <mxCell id="xQXg4SYV8JEtoPOsj5-T-60" value="12:00:00" style="text;html=1;strokeColor=none;fillColor=none;align=center;verticalAlign=middle;whiteSpace=wrap;rounded=0;" vertex="1" parent="1">
          <mxGeometry x="482" y="330" width="70" height="30" as="geometry" />
        </mxCell>
        <mxCell id="xQXg4SYV8JEtoPOsj5-T-61" value="11:55:00" style="text;html=1;strokeColor=none;fillColor=none;align=center;verticalAlign=middle;whiteSpace=wrap;rounded=0;" vertex="1" parent="1">
          <mxGeometry x="570" y="330" width="70" height="30" as="geometry" />
        </mxCell>
        <mxCell id="xQXg4SYV8JEtoPOsj5-T-62" value="" style="curved=1;endArrow=classic;html=1;rounded=0;fontSize=13;exitX=0.5;exitY=0;exitDx=0;exitDy=0;" edge="1" parent="1" source="xQXg4SYV8JEtoPOsj5-T-10">
          <mxGeometry width="50" height="50" relative="1" as="geometry">
            <mxPoint x="180" y="300" as="sourcePoint" />
            <mxPoint x="340" y="360" as="targetPoint" />
            <Array as="points">
              <mxPoint x="201" y="269" />
            </Array>
          </mxGeometry>
        </mxCell>
        <mxCell id="xQXg4SYV8JEtoPOsj5-T-63" value="" style="curved=1;endArrow=classic;html=1;rounded=0;fontSize=13;entryX=0.397;entryY=0.993;entryDx=0;entryDy=0;exitX=0.5;exitY=0;exitDx=0;exitDy=0;entryPerimeter=0;" edge="1" parent="1" target="xQXg4SYV8JEtoPOsj5-T-55">
          <mxGeometry width="50" height="50" relative="1" as="geometry">
            <mxPoint x="290" y="230" as="sourcePoint" />
            <mxPoint x="440" y="360" as="targetPoint" />
            <Array as="points">
              <mxPoint x="296" y="269" />
            </Array>
          </mxGeometry>
        </mxCell>
        <mxCell id="xQXg4SYV8JEtoPOsj5-T-64" value="" style="curved=1;endArrow=classic;html=1;rounded=0;fontSize=13;entryX=0.5;entryY=1;entryDx=0;entryDy=0;exitX=0.5;exitY=0;exitDx=0;exitDy=0;" edge="1" parent="1" target="xQXg4SYV8JEtoPOsj5-T-54">
          <mxGeometry width="50" height="50" relative="1" as="geometry">
            <mxPoint x="394" y="230" as="sourcePoint" />
            <mxPoint x="359" y="360" as="targetPoint" />
            <Array as="points">
              <mxPoint x="400" y="269" />
            </Array>
          </mxGeometry>
        </mxCell>
        <mxCell id="xQXg4SYV8JEtoPOsj5-T-65" value="" style="curved=1;endArrow=classic;html=1;rounded=0;fontSize=13;entryX=0.5;entryY=1;entryDx=0;entryDy=0;exitX=0.5;exitY=0;exitDx=0;exitDy=0;" edge="1" parent="1" target="xQXg4SYV8JEtoPOsj5-T-61">
          <mxGeometry width="50" height="50" relative="1" as="geometry">
            <mxPoint x="493" y="230" as="sourcePoint" />
            <mxPoint x="643" y="360" as="targetPoint" />
            <Array as="points">
              <mxPoint x="499" y="269" />
              <mxPoint x="560" y="320" />
            </Array>
          </mxGeometry>
        </mxCell>
      </root>
    </mxGraphModel>
  </diagram>
</mxfile>
